<svg width="36" height="36" viewBox="0 0 36 36" fill="none" xmlns="http://www.w3.org/2000/svg">
<path fill-rule="evenodd" clip-rule="evenodd" d="M36 5C36 2.23858 33.7614 0 31 0H5C2.23858 0 0 2.23858 0 5V31C0 33.7614 2.23858 36 5 36H31C33.7614 36 36 33.7614 36 31V5ZM33 8C33 5.23858 30.7614 3 28 3H8C5.23858 3 3 5.23858 3 8V28C3 30.7614 5.23858 33 8 33H28C30.7614 33 33 30.7614 33 28V8Z" fill="url(#paint0_linear_212_192)" fill-opacity="0.5"/>
<path d="M6 11C6 8.23858 8.23858 6 11 6C13.7614 6 16 8.23858 16 11V25C16 27.7614 13.7614 30 11 30C8.23858 30 6 27.7614 6 25V11Z" fill="url(#paint1_linear_212_192)" fill-opacity="0.5"/>
<path d="M20 11C20 8.23858 22.2386 6 25 6C27.7614 6 30 8.23858 30 11V25C30 27.7614 27.7614 30 25 30C22.2386 30 20 27.7614 20 25V11Z" fill="url(#paint2_linear_212_192)" fill-opacity="0.5"/>
<defs>
<linearGradient id="paint0_linear_212_192" x1="25" y1="6" x2="25" y2="30" gradientUnits="userSpaceOnUse">
<stop stop-color="#FC354C"/>
<stop offset="1" stop-color="#0ABFBC"/>
</linearGradient>
<linearGradient id="paint1_linear_212_192" x1="25" y1="6" x2="25" y2="30" gradientUnits="userSpaceOnUse">
<stop stop-color="#FC354C"/>
<stop offset="1" stop-color="#0ABFBC"/>
</linearGradient>
<linearGradient id="paint2_linear_212_192" x1="25" y1="6" x2="25" y2="30" gradientUnits="userSpaceOnUse">
<stop stop-color="#FC354C"/>
<stop offset="1" stop-color="#0ABFBC"/>
</linearGradient>
</defs>
</svg>
