<svg width="36" height="36" viewBox="0 0 36 36" fill="none" xmlns="http://www.w3.org/2000/svg">
<path d="M22.5 13.1699C25.8333 15.0944 25.8333 19.9056 22.5 21.8301L18.75 23.9952C15.4167 25.9197 11.25 23.5141 11.25 19.6651L11.25 15.3349C11.25 11.4859 15.4167 9.08031 18.75 11.0048L22.5 13.1699Z" fill="url(#paint0_linear_212_191)" fill-opacity="0.5"/>
<path fill-rule="evenodd" clip-rule="evenodd" d="M36 5C36 2.23858 33.7614 0 31 0H5C2.23858 0 0 2.23858 0 5V31C0 33.7614 2.23858 36 5 36H31C33.7614 36 36 33.7614 36 31V5ZM33 8C33 5.23858 30.7614 3 28 3H8C5.23858 3 3 5.23858 3 8V28C3 30.7614 5.23858 33 8 33H28C30.7614 33 33 30.7614 33 28V8Z" fill="url(#paint1_linear_212_191)" fill-opacity="0.5"/>
<defs>
<linearGradient id="paint0_linear_212_191" x1="28.5" y1="0" x2="28.5" y2="36" gradientUnits="userSpaceOnUse">
<stop stop-color="#FC354C"/>
<stop offset="1" stop-color="#0ABFBC"/>
</linearGradient>
<linearGradient id="paint1_linear_212_191" x1="28.5" y1="0" x2="28.5" y2="36" gradientUnits="userSpaceOnUse">
<stop stop-color="#FC354C"/>
<stop offset="1" stop-color="#0ABFBC"/>
</linearGradient>
</defs>
</svg>
