<svg width="36" height="36" viewBox="0 0 36 36" fill="none" xmlns="http://www.w3.org/2000/svg">
<path fill-rule="evenodd" clip-rule="evenodd" d="M36 5C36 2.23858 33.7614 0 31 0H5C2.23858 0 0 2.23858 0 5V31C0 33.7614 2.23858 36 5 36H31C33.7614 36 36 33.7614 36 31V5ZM33 8C33 5.23858 30.7614 3 28 3H8C5.23858 3 3 5.23858 3 8V28C3 30.7614 5.23858 33 8 33H28C30.7614 33 33 30.7614 33 28V8Z" fill="url(#paint0_linear_212_206)" fill-opacity="0.5"/>
<path d="M28 24.8868L30.8868 22L28 19.1132L25.1132 22L28 24.8868ZM27.5 15L27.5 22L28.5 22L28.5 15L27.5 15ZM11 10.5L19.5 10.5L19.5 9.5L11 9.5L11 10.5ZM19.5 10.5L23 10.5L23 9.5L19.5 9.5L19.5 10.5ZM28.5 15C28.5 11.9624 26.0376 9.5 23 9.5L23 10.5C25.4853 10.5 27.5 12.5147 27.5 15L28.5 15Z" fill="url(#paint1_linear_212_206)"/>
<path d="M10 10.2265L4.2265 16L10 21.7735L15.7735 16L10 10.2265ZM11 21L11 16L9 16L9 21L11 21ZM27 25L18.5 25L18.5 27L27 27L27 25ZM18.5 25L15 25L15 27L18.5 27L18.5 25ZM9 21C9 24.3137 11.6863 27 15 27L15 25C12.7909 25 11 23.2091 11 21L9 21Z" fill="url(#paint2_linear_212_206)"/>
<defs>
<linearGradient id="paint0_linear_212_206" x1="28.5" y1="0" x2="28.5" y2="36" gradientUnits="userSpaceOnUse">
<stop stop-color="#FC354C"/>
<stop offset="1" stop-color="#0ABFBC"/>
</linearGradient>
<linearGradient id="paint1_linear_212_206" x1="28" y1="16" x2="11" y2="16" gradientUnits="userSpaceOnUse">
<stop stop-color="#85D6D6"/>
<stop offset="1" stop-color="#F597A2"/>
</linearGradient>
<linearGradient id="paint2_linear_212_206" x1="10" y1="21" x2="27" y2="21" gradientUnits="userSpaceOnUse">
<stop stop-color="#85D6D6"/>
<stop offset="1" stop-color="#F597A2"/>
</linearGradient>
</defs>
</svg>
