<svg width="36" height="36" viewBox="0 0 36 36" fill="none" xmlns="http://www.w3.org/2000/svg">
<path fill-rule="evenodd" clip-rule="evenodd" d="M36 5C36 2.23858 33.7614 0 31 0H5C2.23858 0 0 2.23858 0 5V31C0 33.7614 2.23858 36 5 36H31C33.7614 36 36 33.7614 36 31V5ZM33 8C33 5.23858 30.7614 3 28 3H8C5.23858 3 3 5.23858 3 8V28C3 30.7614 5.23858 33 8 33H28C30.7614 33 33 30.7614 33 28V8Z" fill="url(#paint0_linear_212_201)" fill-opacity="0.5"/>
<path d="M28 18C28 23.5228 23.5228 28 18 28C12.4772 28 8 23.5228 8 18C8 12.4772 12.4772 8 18 8C23.5228 8 28 12.4772 28 18Z" fill="url(#paint1_linear_212_201)" fill-opacity="0.5"/>
<defs>
<linearGradient id="paint0_linear_212_201" x1="23.8333" y1="8" x2="23.8333" y2="28" gradientUnits="userSpaceOnUse">
<stop stop-color="#FC354C"/>
<stop offset="1" stop-color="#0ABFBC"/>
</linearGradient>
<linearGradient id="paint1_linear_212_201" x1="23.8333" y1="8" x2="23.8333" y2="28" gradientUnits="userSpaceOnUse">
<stop stop-color="#FC354C"/>
<stop offset="1" stop-color="#0ABFBC"/>
</linearGradient>
</defs>
</svg>
